<mxfile host="Electron" agent="Mozilla/5.0 (Windows NT 10.0; Win64; x64) AppleWebKit/537.36 (KHTML, like Gecko) draw.io/24.7.8 Chrome/128.0.6613.36 Electron/32.0.1 Safari/537.36" version="24.7.8">
  <diagram name="Seite-1" id="zIh8jNpniTw086rYhds0">
    <mxGraphModel dx="2607" dy="1520" grid="1" gridSize="10" guides="1" tooltips="1" connect="1" arrows="1" fold="1" page="1" pageScale="1" pageWidth="827" pageHeight="1169" math="0" shadow="0">
      <root>
        <mxCell id="0" />
        <mxCell id="1" parent="0" />
        <mxCell id="hMuRxjU3mHN4IoHoCKhS-1" value="Actor" style="shape=umlActor;verticalLabelPosition=bottom;verticalAlign=top;html=1;outlineConnect=0;" vertex="1" parent="1">
          <mxGeometry x="270" y="40" width="30" height="60" as="geometry" />
        </mxCell>
        <mxCell id="hMuRxjU3mHN4IoHoCKhS-2" value="Opens satellitetracker.exe" style="rounded=0;whiteSpace=wrap;html=1;" vertex="1" parent="1">
          <mxGeometry x="230" y="140" width="120" height="60" as="geometry" />
        </mxCell>
        <mxCell id="hMuRxjU3mHN4IoHoCKhS-3" value="Backend" style="rounded=1;whiteSpace=wrap;html=1;" vertex="1" parent="1">
          <mxGeometry x="720" y="40" width="120" height="60" as="geometry" />
        </mxCell>
        <mxCell id="hMuRxjU3mHN4IoHoCKhS-4" value="Fronend" style="rounded=1;whiteSpace=wrap;html=1;" vertex="1" parent="1">
          <mxGeometry x="480" y="40" width="120" height="60" as="geometry" />
        </mxCell>
        <mxCell id="hMuRxjU3mHN4IoHoCKhS-5" value="Initilaize Ui&lt;div&gt;Opens Browser&lt;/div&gt;" style="rounded=0;whiteSpace=wrap;html=1;" vertex="1" parent="1">
          <mxGeometry x="720" y="140" width="120" height="60" as="geometry" />
        </mxCell>
        <mxCell id="hMuRxjU3mHN4IoHoCKhS-6" value="Page: Satellite Track" style="rounded=0;whiteSpace=wrap;html=1;" vertex="1" parent="1">
          <mxGeometry x="480" y="240" width="120" height="60" as="geometry" />
        </mxCell>
        <mxCell id="hMuRxjU3mHN4IoHoCKhS-7" value="UI: Select Satellite" style="rounded=0;whiteSpace=wrap;html=1;" vertex="1" parent="1">
          <mxGeometry x="480" y="320" width="120" height="60" as="geometry" />
        </mxCell>
        <mxCell id="hMuRxjU3mHN4IoHoCKhS-8" value="Select Group" style="rounded=0;whiteSpace=wrap;html=1;" vertex="1" parent="1">
          <mxGeometry x="230" y="400" width="120" height="60" as="geometry" />
        </mxCell>
        <mxCell id="hMuRxjU3mHN4IoHoCKhS-9" value="Acces Celestrack using selected Group&lt;div&gt;Download of TLE Data&lt;/div&gt;" style="rounded=0;whiteSpace=wrap;html=1;" vertex="1" parent="1">
          <mxGeometry x="720" y="400" width="220" height="60" as="geometry" />
        </mxCell>
        <mxCell id="hMuRxjU3mHN4IoHoCKhS-10" value="Satellite Dropdown provided" style="rounded=0;whiteSpace=wrap;html=1;" vertex="1" parent="1">
          <mxGeometry x="480" y="480" width="120" height="60" as="geometry" />
        </mxCell>
        <mxCell id="hMuRxjU3mHN4IoHoCKhS-11" value="Select Satellite&amp;nbsp;" style="rounded=0;whiteSpace=wrap;html=1;" vertex="1" parent="1">
          <mxGeometry x="230" y="560" width="120" height="60" as="geometry" />
        </mxCell>
        <mxCell id="hMuRxjU3mHN4IoHoCKhS-12" value="Acces https://nssdc.gsfc.nasa.gov using selected Satellite&lt;div&gt;Download of Description&lt;/div&gt;" style="rounded=0;whiteSpace=wrap;html=1;" vertex="1" parent="1">
          <mxGeometry x="720" y="555" width="220" height="70" as="geometry" />
        </mxCell>
        <mxCell id="hMuRxjU3mHN4IoHoCKhS-13" value="Description provided" style="rounded=0;whiteSpace=wrap;html=1;" vertex="1" parent="1">
          <mxGeometry x="480" y="640" width="120" height="60" as="geometry" />
        </mxCell>
        <mxCell id="hMuRxjU3mHN4IoHoCKhS-14" value="Configure Parameter" style="rounded=0;whiteSpace=wrap;html=1;" vertex="1" parent="1">
          <mxGeometry x="230" y="720" width="120" height="60" as="geometry" />
        </mxCell>
        <mxCell id="hMuRxjU3mHN4IoHoCKhS-15" value="Create Trackdate using given parameter" style="rounded=0;whiteSpace=wrap;html=1;" vertex="1" parent="1">
          <mxGeometry x="720" y="800" width="220" height="60" as="geometry" />
        </mxCell>
        <mxCell id="hMuRxjU3mHN4IoHoCKhS-17" value="Button: Create data Table" style="rounded=0;whiteSpace=wrap;html=1;" vertex="1" parent="1">
          <mxGeometry x="230" y="800" width="120" height="60" as="geometry" />
        </mxCell>
        <mxCell id="hMuRxjU3mHN4IoHoCKhS-18" value="Trackdata is given in Data Tables" style="rounded=0;whiteSpace=wrap;html=1;" vertex="1" parent="1">
          <mxGeometry x="480" y="880" width="120" height="60" as="geometry" />
        </mxCell>
        <mxCell id="hMuRxjU3mHN4IoHoCKhS-19" value="Select row in Data tables" style="rounded=0;whiteSpace=wrap;html=1;" vertex="1" parent="1">
          <mxGeometry x="230" y="960" width="120" height="60" as="geometry" />
        </mxCell>
        <mxCell id="hMuRxjU3mHN4IoHoCKhS-20" value="Create Plots" style="rounded=0;whiteSpace=wrap;html=1;" vertex="1" parent="1">
          <mxGeometry x="720" y="960" width="220" height="60" as="geometry" />
        </mxCell>
        <mxCell id="hMuRxjU3mHN4IoHoCKhS-21" value="Plots are given (interactive)" style="rounded=0;whiteSpace=wrap;html=1;" vertex="1" parent="1">
          <mxGeometry x="480" y="1040" width="120" height="60" as="geometry" />
        </mxCell>
        <mxCell id="hMuRxjU3mHN4IoHoCKhS-22" value="" style="endArrow=classic;html=1;rounded=0;exitX=1;exitY=0.5;exitDx=0;exitDy=0;entryX=0;entryY=0.5;entryDx=0;entryDy=0;" edge="1" parent="1" source="hMuRxjU3mHN4IoHoCKhS-2" target="hMuRxjU3mHN4IoHoCKhS-5">
          <mxGeometry width="50" height="50" relative="1" as="geometry">
            <mxPoint x="650" y="160" as="sourcePoint" />
            <mxPoint x="700" y="110" as="targetPoint" />
          </mxGeometry>
        </mxCell>
        <mxCell id="hMuRxjU3mHN4IoHoCKhS-23" value="" style="endArrow=classic;html=1;rounded=0;exitX=0;exitY=0.75;exitDx=0;exitDy=0;entryX=1;entryY=0.5;entryDx=0;entryDy=0;" edge="1" parent="1" source="hMuRxjU3mHN4IoHoCKhS-5" target="hMuRxjU3mHN4IoHoCKhS-6">
          <mxGeometry width="50" height="50" relative="1" as="geometry">
            <mxPoint x="670" y="320" as="sourcePoint" />
            <mxPoint x="720" y="270" as="targetPoint" />
          </mxGeometry>
        </mxCell>
        <mxCell id="hMuRxjU3mHN4IoHoCKhS-24" value="" style="endArrow=classic;html=1;rounded=0;exitX=1;exitY=0.5;exitDx=0;exitDy=0;entryX=0;entryY=0.5;entryDx=0;entryDy=0;" edge="1" parent="1" source="hMuRxjU3mHN4IoHoCKhS-8" target="hMuRxjU3mHN4IoHoCKhS-9">
          <mxGeometry width="50" height="50" relative="1" as="geometry">
            <mxPoint x="460" y="480" as="sourcePoint" />
            <mxPoint x="510" y="430" as="targetPoint" />
          </mxGeometry>
        </mxCell>
        <mxCell id="hMuRxjU3mHN4IoHoCKhS-25" value="" style="endArrow=classic;html=1;rounded=0;exitX=0;exitY=0.75;exitDx=0;exitDy=0;entryX=1;entryY=0.5;entryDx=0;entryDy=0;" edge="1" parent="1" source="hMuRxjU3mHN4IoHoCKhS-9" target="hMuRxjU3mHN4IoHoCKhS-10">
          <mxGeometry width="50" height="50" relative="1" as="geometry">
            <mxPoint x="560" y="560" as="sourcePoint" />
            <mxPoint x="610" y="510" as="targetPoint" />
          </mxGeometry>
        </mxCell>
        <mxCell id="hMuRxjU3mHN4IoHoCKhS-26" value="" style="endArrow=classic;html=1;rounded=0;exitX=1;exitY=0.5;exitDx=0;exitDy=0;entryX=0;entryY=0.5;entryDx=0;entryDy=0;" edge="1" parent="1" source="hMuRxjU3mHN4IoHoCKhS-11" target="hMuRxjU3mHN4IoHoCKhS-12">
          <mxGeometry width="50" height="50" relative="1" as="geometry">
            <mxPoint x="560" y="620" as="sourcePoint" />
            <mxPoint x="610" y="570" as="targetPoint" />
          </mxGeometry>
        </mxCell>
        <mxCell id="hMuRxjU3mHN4IoHoCKhS-28" value="" style="endArrow=classic;html=1;rounded=0;exitX=0;exitY=0.75;exitDx=0;exitDy=0;entryX=1;entryY=0.5;entryDx=0;entryDy=0;" edge="1" parent="1" source="hMuRxjU3mHN4IoHoCKhS-12" target="hMuRxjU3mHN4IoHoCKhS-13">
          <mxGeometry width="50" height="50" relative="1" as="geometry">
            <mxPoint x="560" y="620" as="sourcePoint" />
            <mxPoint x="610" y="570" as="targetPoint" />
          </mxGeometry>
        </mxCell>
        <mxCell id="hMuRxjU3mHN4IoHoCKhS-29" value="" style="endArrow=classic;html=1;rounded=0;exitX=1;exitY=0.5;exitDx=0;exitDy=0;entryX=0;entryY=0.5;entryDx=0;entryDy=0;" edge="1" parent="1" source="hMuRxjU3mHN4IoHoCKhS-17" target="hMuRxjU3mHN4IoHoCKhS-15">
          <mxGeometry width="50" height="50" relative="1" as="geometry">
            <mxPoint x="520" y="760" as="sourcePoint" />
            <mxPoint x="570" y="710" as="targetPoint" />
          </mxGeometry>
        </mxCell>
        <mxCell id="hMuRxjU3mHN4IoHoCKhS-31" value="" style="endArrow=classic;html=1;rounded=0;exitX=1;exitY=0.5;exitDx=0;exitDy=0;entryX=0;entryY=0.5;entryDx=0;entryDy=0;" edge="1" parent="1" source="hMuRxjU3mHN4IoHoCKhS-19" target="hMuRxjU3mHN4IoHoCKhS-20">
          <mxGeometry width="50" height="50" relative="1" as="geometry">
            <mxPoint x="430" y="950" as="sourcePoint" />
            <mxPoint x="480" y="900" as="targetPoint" />
          </mxGeometry>
        </mxCell>
        <mxCell id="hMuRxjU3mHN4IoHoCKhS-32" value="" style="endArrow=classic;html=1;rounded=0;exitX=0;exitY=0.75;exitDx=0;exitDy=0;entryX=1;entryY=0.5;entryDx=0;entryDy=0;" edge="1" parent="1" source="hMuRxjU3mHN4IoHoCKhS-20" target="hMuRxjU3mHN4IoHoCKhS-21">
          <mxGeometry width="50" height="50" relative="1" as="geometry">
            <mxPoint x="430" y="950" as="sourcePoint" />
            <mxPoint x="480" y="900" as="targetPoint" />
          </mxGeometry>
        </mxCell>
        <mxCell id="hMuRxjU3mHN4IoHoCKhS-33" value="" style="endArrow=classic;html=1;rounded=0;exitX=0;exitY=0.75;exitDx=0;exitDy=0;entryX=1;entryY=0.5;entryDx=0;entryDy=0;" edge="1" parent="1" source="hMuRxjU3mHN4IoHoCKhS-15" target="hMuRxjU3mHN4IoHoCKhS-18">
          <mxGeometry width="50" height="50" relative="1" as="geometry">
            <mxPoint x="430" y="950" as="sourcePoint" />
            <mxPoint x="480" y="900" as="targetPoint" />
          </mxGeometry>
        </mxCell>
        <mxCell id="hMuRxjU3mHN4IoHoCKhS-34" value="Actor" style="shape=umlActor;verticalLabelPosition=bottom;verticalAlign=top;html=1;outlineConnect=0;" vertex="1" parent="1">
          <mxGeometry x="1110" y="40" width="30" height="60" as="geometry" />
        </mxCell>
        <mxCell id="hMuRxjU3mHN4IoHoCKhS-35" value="Opens Linkbudget" style="rounded=0;whiteSpace=wrap;html=1;" vertex="1" parent="1">
          <mxGeometry x="1070" y="140" width="120" height="60" as="geometry" />
        </mxCell>
        <mxCell id="hMuRxjU3mHN4IoHoCKhS-36" value="Backend" style="rounded=1;whiteSpace=wrap;html=1;" vertex="1" parent="1">
          <mxGeometry x="1560" y="40" width="120" height="60" as="geometry" />
        </mxCell>
        <mxCell id="hMuRxjU3mHN4IoHoCKhS-37" value="Fronend" style="rounded=1;whiteSpace=wrap;html=1;" vertex="1" parent="1">
          <mxGeometry x="1320" y="40" width="120" height="60" as="geometry" />
        </mxCell>
        <mxCell id="hMuRxjU3mHN4IoHoCKhS-38" value="Initilaize Ui&lt;div&gt;Opens Html for Linkbudget&lt;/div&gt;" style="rounded=0;whiteSpace=wrap;html=1;" vertex="1" parent="1">
          <mxGeometry x="1560" y="140" width="120" height="60" as="geometry" />
        </mxCell>
        <mxCell id="hMuRxjU3mHN4IoHoCKhS-39" value="Page: Linkbudet" style="rounded=0;whiteSpace=wrap;html=1;" vertex="1" parent="1">
          <mxGeometry x="1320" y="240" width="120" height="60" as="geometry" />
        </mxCell>
        <mxCell id="hMuRxjU3mHN4IoHoCKhS-40" value="Set default Values" style="rounded=0;whiteSpace=wrap;html=1;" vertex="1" parent="1">
          <mxGeometry x="1320" y="320" width="120" height="60" as="geometry" />
        </mxCell>
        <mxCell id="hMuRxjU3mHN4IoHoCKhS-54" value="" style="endArrow=classic;html=1;rounded=0;exitX=1;exitY=0.5;exitDx=0;exitDy=0;entryX=0;entryY=0.5;entryDx=0;entryDy=0;" edge="1" parent="1" source="hMuRxjU3mHN4IoHoCKhS-35" target="hMuRxjU3mHN4IoHoCKhS-38">
          <mxGeometry width="50" height="50" relative="1" as="geometry">
            <mxPoint x="1490" y="160" as="sourcePoint" />
            <mxPoint x="1540" y="110" as="targetPoint" />
          </mxGeometry>
        </mxCell>
        <mxCell id="hMuRxjU3mHN4IoHoCKhS-55" value="" style="endArrow=classic;html=1;rounded=0;exitX=0;exitY=0.75;exitDx=0;exitDy=0;entryX=1;entryY=0.5;entryDx=0;entryDy=0;" edge="1" parent="1" source="hMuRxjU3mHN4IoHoCKhS-38" target="hMuRxjU3mHN4IoHoCKhS-39">
          <mxGeometry width="50" height="50" relative="1" as="geometry">
            <mxPoint x="1510" y="320" as="sourcePoint" />
            <mxPoint x="1560" y="270" as="targetPoint" />
          </mxGeometry>
        </mxCell>
        <mxCell id="hMuRxjU3mHN4IoHoCKhS-64" value="Configure Parameter" style="rounded=0;whiteSpace=wrap;html=1;" vertex="1" parent="1">
          <mxGeometry x="1065" y="400" width="120" height="60" as="geometry" />
        </mxCell>
        <mxCell id="hMuRxjU3mHN4IoHoCKhS-65" value="Button: Create Linkbudget" style="rounded=0;whiteSpace=wrap;html=1;" vertex="1" parent="1">
          <mxGeometry x="1065" y="480" width="120" height="60" as="geometry" />
        </mxCell>
        <mxCell id="hMuRxjU3mHN4IoHoCKhS-66" value="Button Create Pdf" style="rounded=0;whiteSpace=wrap;html=1;" vertex="1" parent="1">
          <mxGeometry x="1065" y="645" width="120" height="60" as="geometry" />
        </mxCell>
        <mxCell id="hMuRxjU3mHN4IoHoCKhS-68" value="Using given Parameter to create Linbudget using formulas" style="rounded=0;whiteSpace=wrap;html=1;" vertex="1" parent="1">
          <mxGeometry x="1560" y="475" width="220" height="70" as="geometry" />
        </mxCell>
        <mxCell id="hMuRxjU3mHN4IoHoCKhS-69" value="Linkbudget provided" style="rounded=0;whiteSpace=wrap;html=1;" vertex="1" parent="1">
          <mxGeometry x="1320" y="560" width="120" height="60" as="geometry" />
        </mxCell>
        <mxCell id="hMuRxjU3mHN4IoHoCKhS-70" value="(javascript) create jsPDF from given linkbudget table and save pdf document" style="rounded=0;whiteSpace=wrap;html=1;" vertex="1" parent="1">
          <mxGeometry x="1320" y="640" width="220" height="70" as="geometry" />
        </mxCell>
        <mxCell id="hMuRxjU3mHN4IoHoCKhS-71" value="" style="endArrow=classic;html=1;rounded=0;exitX=1;exitY=0.5;exitDx=0;exitDy=0;entryX=0;entryY=0.5;entryDx=0;entryDy=0;" edge="1" parent="1" source="hMuRxjU3mHN4IoHoCKhS-65" target="hMuRxjU3mHN4IoHoCKhS-68">
          <mxGeometry width="50" height="50" relative="1" as="geometry">
            <mxPoint x="1300" y="450" as="sourcePoint" />
            <mxPoint x="1350" y="400" as="targetPoint" />
          </mxGeometry>
        </mxCell>
        <mxCell id="hMuRxjU3mHN4IoHoCKhS-73" value="" style="endArrow=classic;html=1;rounded=0;exitX=0;exitY=0.75;exitDx=0;exitDy=0;entryX=1;entryY=0.5;entryDx=0;entryDy=0;" edge="1" parent="1" source="hMuRxjU3mHN4IoHoCKhS-68" target="hMuRxjU3mHN4IoHoCKhS-69">
          <mxGeometry width="50" height="50" relative="1" as="geometry">
            <mxPoint x="1330" y="580" as="sourcePoint" />
            <mxPoint x="1380" y="530" as="targetPoint" />
          </mxGeometry>
        </mxCell>
        <mxCell id="hMuRxjU3mHN4IoHoCKhS-74" value="" style="endArrow=classic;html=1;rounded=0;exitX=1;exitY=0.5;exitDx=0;exitDy=0;entryX=0;entryY=0.5;entryDx=0;entryDy=0;" edge="1" parent="1" source="hMuRxjU3mHN4IoHoCKhS-66" target="hMuRxjU3mHN4IoHoCKhS-70">
          <mxGeometry width="50" height="50" relative="1" as="geometry">
            <mxPoint x="1330" y="580" as="sourcePoint" />
            <mxPoint x="1380" y="530" as="targetPoint" />
          </mxGeometry>
        </mxCell>
      </root>
    </mxGraphModel>
  </diagram>
</mxfile>
